<svg width="142" height="58" viewBox="0 0 142 58" fill="none" xmlns="http://www.w3.org/2000/svg">
<path d="M0 42.0976H8.68735C3.38319 32.5935 0.75182 21.5892 0.75182 5.66747C0.75182 5.66747 1.79672 4.91732 4.13501 9.37692C5.34557 11.7132 7.72846 16.6718 11.7392 24.3005C16.8777 34.0525 22.4336 42.514 27.5689 42.514C28.155 42.514 28.9897 42.3487 29.4484 42.0976V0.416399H20.7611C26.0652 9.92046 28.6966 20.9248 28.6966 36.5128C28.6966 36.5128 27.9448 37.3869 25.6893 34.9711C23.8926 33.0099 21.137 28.9667 16.9606 21.2586C9.10786 6.75138 8.10437 0 1.87955 0C1.29339 0 0.458738 0.165288 0 0.416399V42.0976Z" fill="#FDFCF8" style="fill:#FDFCF8;fill:color(display-p3 0.1137 0.2275 0.2118);fill-opacity:1;"/>
<path d="M42.312 42.0976C41.8532 40.1809 41.5601 33.8872 41.7672 26.9674H55.7205C57.0585 31.5509 58.4793 36.3443 60.2314 42.0976H66.6251C62.3212 27.886 59.7313 19.4658 55.5134 5.58483C54.6342 2.70818 52.9649 0 49.913 0C46.8643 0 45.195 2.70818 44.3158 5.58483C40.0979 19.4658 37.5494 27.886 33.2041 42.0976H42.312ZM41.7672 26.9674C42.1431 16.4239 43.6914 4.0432 47.4505 4.0432C48.3679 4.0432 48.8267 4.66939 49.1198 5.58483C51.6683 13.5886 53.7549 20.4258 55.7205 26.9674H41.7672Z" fill="#FDFCF8" style="fill:#FDFCF8;fill:color(display-p3 0.1137 0.2275 0.2118);fill-opacity:1;"/>
<path d="M70.3779 42.0977H76.4339V0.416504H70.3779V42.0977Z" fill="#FDFCF8" style="fill:#FDFCF8;fill:color(display-p3 0.1137 0.2275 0.2118);fill-opacity:1;"/>
<path d="M82.2812 42.0977H107.346V35.2605C104.505 38.1785 95.6484 41.4302 88.3372 41.4715V0.416504H82.2812V42.0977Z" fill="#FDFCF8" style="fill:#FDFCF8;fill:color(display-p3 0.1137 0.2275 0.2118);fill-opacity:1;"/>
<path d="M123.506 42.514C131.904 42.514 139.674 37.514 139.674 29.3863C139.674 21.5478 133.197 17.6318 123.799 16.9643C119.037 16.6305 111.394 17.0882 111.394 12.2949C111.394 7.71132 117.868 5.9599 123.968 5.9599C129.314 5.9599 134.87 7.37757 137.294 9.12898L139.005 2.794C136.415 0.708831 130.817 0 126.514 0C114.484 0 110.684 6.66874 110.684 11.7958C110.684 18.6299 114.15 22.5491 124.72 24.3418C130.776 25.3844 138.88 25.591 138.88 30.5529C138.88 35.8039 131.152 36.7639 126.6 36.7639C120.668 36.7639 116.781 34.6787 112.312 31.926L109.805 37.7206C112.229 40.1396 117.826 42.514 123.506 42.514Z" fill="#FDFCF8" style="fill:#FDFCF8;fill:color(display-p3 0.1137 0.2275 0.2118);fill-opacity:1;"/>
<mask id="mask0_2186_2863" style="mask-type:luminance" maskUnits="userSpaceOnUse" x="54" y="23" width="8" height="9">
<path d="M54.7881 23.4951H61.3124V31.6324H54.7881V23.4951Z" fill="white" style="fill:white;fill-opacity:1;"/>
</mask>
<g mask="url(#mask0_2186_2863)">
<mask id="mask1_2186_2863" style="mask-type:luminance" maskUnits="userSpaceOnUse" x="54" y="23" width="8" height="9">
<path d="M54.915 25.1259L59.1488 23.7305L61.2131 29.9701L56.9794 31.3655L54.915 25.1259Z" fill="white" style="fill:white;fill-opacity:1;"/>
</mask>
<g mask="url(#mask1_2186_2863)">
<mask id="mask2_2186_2863" style="mask-type:luminance" maskUnits="userSpaceOnUse" x="54" y="23" width="8" height="9">
<path d="M54.915 25.1259L59.1488 23.7305L61.2099 29.9606L56.9762 31.356L54.915 25.1259Z" fill="white" style="fill:white;fill-opacity:1;"/>
</mask>
<g mask="url(#mask2_2186_2863)">
<path d="M54.915 25.1259L59.1488 23.7305L61.2099 29.9542L56.973 31.3496L54.915 25.1259Z" fill="#FDFCF8" style="fill:#FDFCF8;fill:color(display-p3 0.1137 0.2275 0.2118);fill-opacity:1;"/>
</g>
</g>
</g>
<path d="M65.8203 52.2325C66.1325 52.3278 66.381 52.4867 66.5594 52.7156C66.7442 52.9445 66.8398 53.2369 66.8398 53.5929C66.8398 54.0697 66.6614 54.4321 66.3046 54.6864C65.9478 54.9406 65.4285 55.0678 64.75 55.0678H62.1377V49.6133H64.597C65.2151 49.6133 65.6961 49.7404 66.037 49.9947C66.3842 50.2426 66.5594 50.5859 66.5594 51.0246C66.5594 51.3138 66.4893 51.565 66.3555 51.7747C66.2186 51.9782 66.0402 52.1307 65.8203 52.2325ZM62.9277 50.249V51.9909H64.5206C64.9284 51.9909 65.2374 51.921 65.4508 51.7747C65.6611 51.6222 65.7694 51.4028 65.7694 51.1136C65.7694 50.8275 65.6611 50.6114 65.4508 50.4652C65.2374 50.3221 64.9284 50.249 64.5206 50.249H62.9277ZM64.7245 54.4321C65.1641 54.4321 65.4954 54.3621 65.7184 54.2159C65.9382 54.0729 66.0497 53.844 66.0497 53.5293C66.0497 52.9286 65.6069 52.6266 64.7245 52.6266H62.9277V54.4321H64.7245Z" fill="#FDFCF8" style="fill:#FDFCF8;fill:color(display-p3 0.1137 0.2275 0.2118);fill-opacity:1;"/>
<path d="M70.1565 53.186V55.0678H69.3792V53.1606L67.2129 49.6133H68.0412L69.7869 52.4867L71.5454 49.6133H72.3227L70.1565 53.186Z" fill="#FDFCF8" style="fill:#FDFCF8;fill:color(display-p3 0.1137 0.2275 0.2118);fill-opacity:1;"/>
<path d="M76.8066 55.131C76.3988 55.131 76.0038 55.0674 75.6215 54.9402C75.2392 54.8131 74.9366 54.6478 74.7168 54.4444L75.0099 53.8341C75.2138 54.0216 75.475 54.1742 75.7999 54.2918C76.1312 54.4126 76.4657 54.4698 76.8066 54.4698C77.2653 54.4698 77.603 54.3935 77.826 54.241C78.0458 54.0884 78.1573 53.8849 78.1573 53.6307C78.1573 53.4463 78.0968 53.2937 77.9789 53.1729C77.8579 53.0553 77.705 52.9663 77.5202 52.9059C77.3418 52.8392 77.0901 52.7661 76.7684 52.6898C76.3511 52.5881 76.0166 52.4927 75.7617 52.3974C75.5132 52.2956 75.303 52.1431 75.1246 51.9396C74.9462 51.7362 74.857 51.4628 74.857 51.1132C74.857 50.8176 74.9334 50.5538 75.0863 50.3249C75.2392 50.0897 75.4686 49.9021 75.7744 49.7655C76.0866 49.6224 76.4785 49.5493 76.9468 49.5493C77.2685 49.5493 77.5839 49.5938 77.8897 49.6765C78.2019 49.7623 78.4759 49.8799 78.7053 50.0325L78.4504 50.6555C78.221 50.5124 77.9726 50.4012 77.7113 50.3249C77.4469 50.2486 77.1921 50.2105 76.9468 50.2105C76.504 50.2105 76.1727 50.2931 75.9528 50.452C75.7298 50.6142 75.6215 50.8208 75.6215 51.0751C75.6215 51.2626 75.6789 51.4152 75.7999 51.5328C75.9274 51.6536 76.0835 51.7457 76.2714 51.8125C76.4562 51.8729 76.7078 51.9396 77.0232 52.0159C77.431 52.1113 77.7559 52.2066 78.0044 52.3084C78.2593 52.4101 78.4759 52.5626 78.6543 52.7661C78.8391 52.9631 78.9346 53.2333 78.9346 53.5798C78.9346 53.8691 78.8518 54.1329 78.6925 54.3681C78.5396 54.597 78.3007 54.7845 77.9789 54.9275C77.6636 55.0642 77.2717 55.131 76.8066 55.131Z" fill="#FDFCF8" style="fill:#FDFCF8;fill:color(display-p3 0.1137 0.2275 0.2118);fill-opacity:1;"/>
<path d="M83.56 53.7073H80.6547L80.0558 55.0678H79.2402L81.7251 49.6133H82.4896L84.9745 55.0678H84.1589L83.56 53.7073ZM83.2797 53.0843L82.1073 50.4016L80.9223 53.0843H83.2797Z" fill="#FDFCF8" style="fill:#FDFCF8;fill:color(display-p3 0.1137 0.2275 0.2118);fill-opacity:1;"/>
<path d="M87.3828 55.131C86.975 55.131 86.58 55.0674 86.1977 54.9402C85.8154 54.8131 85.5128 54.6478 85.293 54.4444L85.5861 53.8341C85.7899 54.0216 86.0512 54.1742 86.3761 54.2918C86.7074 54.4126 87.0419 54.4698 87.3828 54.4698C87.8415 54.4698 88.1792 54.3935 88.4022 54.241C88.622 54.0884 88.7335 53.8849 88.7335 53.6307C88.7335 53.4463 88.673 53.2937 88.5551 53.1729C88.434 53.0553 88.2811 52.9663 88.0964 52.9059C87.918 52.8392 87.6663 52.7661 87.3445 52.6898C86.9272 52.5881 86.5927 52.4927 86.3379 52.3974C86.0894 52.2956 85.8791 52.1431 85.7007 51.9396C85.5223 51.7362 85.4331 51.4628 85.4331 51.1132C85.4331 50.8176 85.5096 50.5538 85.6625 50.3249C85.8154 50.0897 86.0448 49.9021 86.3506 49.7655C86.6628 49.6224 87.0546 49.5493 87.5229 49.5493C87.8447 49.5493 88.1601 49.5938 88.4659 49.6765C88.7781 49.7623 89.0521 49.8799 89.2814 50.0325L89.0266 50.6555C88.7972 50.5124 88.5487 50.4012 88.2875 50.3249C88.0231 50.2486 87.7682 50.2105 87.5229 50.2105C87.0801 50.2105 86.7488 50.2931 86.529 50.452C86.306 50.6142 86.1977 50.8208 86.1977 51.0751C86.1977 51.2626 86.255 51.4152 86.3761 51.5328C86.5035 51.6536 86.6596 51.7457 86.8476 51.8125C87.0324 51.8729 87.284 51.9396 87.5994 52.0159C88.0072 52.1113 88.3321 52.2066 88.5806 52.3084C88.8354 52.4101 89.0521 52.5626 89.2305 52.7661C89.4152 52.9631 89.5108 53.2333 89.5108 53.5798C89.5108 53.8691 89.428 54.1329 89.2687 54.3681C89.1158 54.597 88.8769 54.7845 88.5551 54.9275C88.2397 55.0642 87.8479 55.131 87.3828 55.131Z" fill="#FDFCF8" style="fill:#FDFCF8;fill:color(display-p3 0.1137 0.2275 0.2118);fill-opacity:1;"/>
<path d="M93.0899 55.131C92.5451 55.131 92.0513 55.0134 91.6117 54.775C91.1689 54.5302 90.8217 54.1965 90.5668 53.7705C90.3183 53.3478 90.1973 52.8678 90.1973 52.3338C90.1973 51.8093 90.3183 51.3357 90.5668 50.9098C90.8217 50.487 91.1689 50.1564 91.6117 49.918C92.0513 49.6733 92.5483 49.5493 93.1026 49.5493C93.5263 49.5493 93.9118 49.6224 94.2622 49.7655C94.619 49.9117 94.9248 50.1215 95.1797 50.4012L94.67 50.8843C94.2622 50.4616 93.7461 50.2486 93.1281 50.2486C92.7203 50.2486 92.3508 50.3376 92.0195 50.5156C91.6945 50.6936 91.4397 50.9447 91.2549 51.2658C91.0765 51.59 90.9873 51.946 90.9873 52.3338C90.9873 52.7343 91.0765 53.0935 91.2549 53.4145C91.4397 53.7292 91.6945 53.9803 92.0195 54.1647C92.3508 54.3427 92.7203 54.4317 93.1281 54.4317C93.7397 54.4317 94.2526 54.2155 94.67 53.7832L95.1797 54.2664C94.9248 54.5556 94.619 54.7718 94.2622 54.9148C93.9118 55.061 93.5231 55.131 93.0899 55.131Z" fill="#FDFCF8" style="fill:#FDFCF8;fill:color(display-p3 0.1137 0.2275 0.2118);fill-opacity:1;"/>
<path d="M100.997 49.6133V55.0678H100.22V52.6393H97.085V55.0678H96.2949V49.6133H97.085V51.9527H100.22V49.6133H100.997Z" fill="#FDFCF8" style="fill:#FDFCF8;fill:color(display-p3 0.1137 0.2275 0.2118);fill-opacity:1;"/>
<path d="M106.133 53.7073H103.228L102.629 55.0678H101.813L104.298 49.6133H105.063L107.548 55.0678H106.732L106.133 53.7073ZM105.853 53.0843L104.681 50.4016L103.496 53.0843H105.853Z" fill="#FDFCF8" style="fill:#FDFCF8;fill:color(display-p3 0.1137 0.2275 0.2118);fill-opacity:1;"/>
<path d="M115.537 55.0678V51.0882L113.562 54.4066H113.193L111.218 51.1136V55.0678H110.466V49.6133H111.116L113.397 53.4403L115.639 49.6133H116.277L116.289 55.0678H115.537Z" fill="#FDFCF8" style="fill:#FDFCF8;fill:color(display-p3 0.1137 0.2275 0.2118);fill-opacity:1;"/>
<path d="M121.906 54.3939V55.0678H117.931V49.6133H121.792V50.2871H118.721V51.9655H121.46V52.6266H118.721V54.3939H121.906Z" fill="#FDFCF8" style="fill:#FDFCF8;fill:color(display-p3 0.1137 0.2275 0.2118);fill-opacity:1;"/>
<path d="M123.168 49.6133H123.958V54.3939H126.914V55.0678H123.168V49.6133Z" fill="#FDFCF8" style="fill:#FDFCF8;fill:color(display-p3 0.1137 0.2275 0.2118);fill-opacity:1;"/>
<path d="M127.811 49.6133H128.601V55.0678H127.811V49.6133Z" fill="#FDFCF8" style="fill:#FDFCF8;fill:color(display-p3 0.1137 0.2275 0.2118);fill-opacity:1;"/>
<path d="M134.935 49.6133V55.0678H134.298L131.023 50.9992V55.0678H130.233V49.6133H130.883L134.158 53.6819V49.6133H134.935Z" fill="#FDFCF8" style="fill:#FDFCF8;fill:color(display-p3 0.1137 0.2275 0.2118);fill-opacity:1;"/>
<path d="M140.072 53.7073H137.166L136.567 55.0678H135.752L138.237 49.6133H139.001L141.486 55.0678H140.671L140.072 53.7073ZM139.791 53.0843L138.619 50.4016L137.434 53.0843H139.791Z" fill="#FDFCF8" style="fill:#FDFCF8;fill:color(display-p3 0.1137 0.2275 0.2118);fill-opacity:1;"/>
<mask id="mask3_2186_2863" style="mask-type:luminance" maskUnits="userSpaceOnUse" x="41" y="15" width="27" height="43">
<path d="M41.3984 15.3896H67.6707V57.4554H41.3984V15.3896Z" fill="white" style="fill:white;fill-opacity:1;"/>
</mask>
<g mask="url(#mask3_2186_2863)">
<path d="M63.5545 15.8029C56.4313 15.3992 50.2128 20.1353 45.6701 25.1226C45.6 25.2021 45.5267 25.2815 45.4534 25.361C44.9119 25.9649 44.3576 26.5593 43.8064 27.1569C43.1024 27.9261 42.2391 28.6318 41.8377 29.6267C41.3981 30.7265 42.1148 32.1823 42.7456 33.4188C42.975 33.867 47.6356 46.5433 47.6324 47.6431C47.6324 48.1358 47.4732 48.7429 47.9765 49.0766C48.4766 49.4072 48.4543 48.7175 49.0023 48.9495C49.8114 49.2864 48.9226 50.5547 49.4483 51.2031C50.404 52.3856 51.1367 50.774 51.8567 50.3767C52.3154 50.1256 52.4842 50.4848 52.9047 50.596C53.4017 50.7295 53.4176 50.3385 53.7808 50.1224C54.8639 49.474 55.5648 50.6564 55.8674 51.5432C56.0522 52.0773 56.1701 52.643 56.2242 53.2057C56.2879 53.8763 56.1382 54.5534 56.3166 55.2145C56.4377 55.6723 56.5874 56.7276 56.9665 57.0359C57.5622 57.5286 57.8075 56.6513 57.8871 56.2031C57.9986 55.5833 57.9477 54.9539 57.8171 54.3404C57.7087 53.8477 57.3902 53.4313 57.1927 52.9609C56.7626 51.931 56.5587 50.8249 56.3548 49.7346C56.2529 49.1847 56.2019 48.6825 56.3389 48.1358C56.4504 47.6812 56.7403 47.3379 56.9155 46.9056C57.0748 46.5115 56.9187 46.5274 57.4252 46.4797C57.833 46.4416 58.1133 46.4765 58.3108 46.0665C58.6708 45.3227 58.1261 44.3691 58.193 43.6094C58.2631 42.7893 58.3746 42.4619 59.12 42.1282C60.1649 41.6641 59.5724 40.8758 59.1837 40.1288C59.0499 39.865 58.8811 39.6616 58.9193 39.3914C58.9512 39.1403 59.069 38.9686 59.0881 38.6921C59.1041 38.4283 59.0818 38.2503 59.1869 38.0246C59.308 37.7576 59.4545 37.6845 59.4736 37.3507C59.4991 36.8739 59.2729 36.3812 59.0372 35.9807C58.7536 35.5039 58.5721 34.9763 58.2471 34.5218C58.0942 34.312 57.9222 34.1213 57.7852 33.9083C57.5972 33.6159 57.2118 33.1677 57.1704 32.8212C57.8967 33.1168 58.8906 33.1867 59.5915 32.7958C60.0375 32.551 60.5249 32.2681 60.9231 31.9566C61.248 31.7023 61.2225 31.5752 61.35 31.2478C61.6048 30.593 62.3917 30.3323 62.4586 29.5854C62.4841 29.3215 62.3471 29.0418 62.3949 28.778C62.4618 28.3839 62.7549 28.1105 63.0161 27.8276C63.5035 27.2999 63.5449 26.9757 63.7169 26.3527C63.8667 25.7996 64.5611 25.5231 64.7172 24.9668C64.867 24.4455 64.6949 24.1372 65.0486 23.6286C65.3926 23.1296 65.4276 22.7196 65.6443 22.1887C65.8259 21.7564 66.2942 21.5308 66.4343 21.0762C66.737 20.0877 67.7086 19.7189 67.7468 18.5842C67.8105 16.588 65.0995 15.8887 63.5545 15.8029ZM54.8671 19.4074C55.2749 18.9529 55.7464 18.8035 56.2688 18.546C56.8231 18.2759 57.3965 18.0406 57.9859 17.8595C59.9037 17.2651 61.7673 17.2428 63.7297 17.5352C63.889 17.5575 64.0801 17.6083 64.1247 17.7641C64.1566 17.8849 64.0705 18.0152 63.959 18.0756C63.8444 18.136 63.7138 18.1455 63.5863 18.1551C61.2385 18.3458 58.8301 18.8512 56.5969 19.6204C56.1127 19.7857 55.6158 19.9701 55.1029 19.9446C54.9531 19.9351 54.7747 19.8842 54.7333 19.7412C54.7015 19.6204 54.7843 19.4996 54.8671 19.4074ZM54.7142 28.5269C54.3351 28.5491 53.956 28.5809 53.5769 28.5746C52.3122 28.5523 51.073 28.2567 49.8783 27.8498C49.7923 27.8212 49.6522 27.7545 49.6426 27.6496C49.6267 27.5002 49.9835 27.3381 50.0918 27.2777C50.5378 27.0266 51.0379 26.7278 51.5604 26.5943C52.051 26.4703 52.5225 26.5879 53.0003 26.6897C53.3762 26.7691 53.7553 26.8486 54.1312 26.928C54.9531 27.1029 55.7145 27.4144 56.4823 27.7481C56.7371 27.8594 56.9952 27.9516 57.2468 28.066C57.3934 28.1327 57.5431 28.1995 57.6801 28.2885C57.731 28.3203 57.7884 28.3775 57.8139 28.4347C57.9031 28.6286 57.6004 28.5491 57.508 28.5364C57.387 28.5174 57.2691 28.4951 57.1449 28.4856C56.8805 28.4665 56.6033 28.4856 56.3357 28.4856C55.7942 28.4856 55.2526 28.4951 54.7142 28.5269ZM54.8767 29.7443C55.1698 29.8746 55.5903 30.0049 55.7591 30.3006C55.8005 30.3768 55.8196 30.4786 55.7846 30.5421C55.7623 30.5835 55.7209 30.6089 55.6508 30.6089C54.2841 30.593 52.8824 30.6184 51.5604 30.2211C50.7321 29.9732 49.9644 29.5218 49.101 29.4074C48.8303 29.3692 48.5754 29.3565 48.3078 29.3788C47.6452 29.4328 47.0144 29.6394 46.3741 29.7952C46.0778 29.8683 45.7656 29.9255 45.4662 29.9922C45.1699 30.059 44.8736 30.1861 44.5678 30.1607C44.4627 30.1543 44.2938 30.0844 44.3862 29.9509C44.5105 29.7697 44.845 29.6744 45.0297 29.5727C45.5649 29.2898 46.0938 28.9655 46.6417 28.6922C47.1737 28.4284 47.7089 28.1455 48.2887 28.0024C48.8876 27.853 49.5152 27.9738 50.095 28.1455C51.3533 28.5078 52.583 28.9719 53.8318 29.3692C54.1854 29.4805 54.539 29.5949 54.8767 29.7443ZM54.3797 26.518C54.0771 26.4958 53.7744 26.464 53.4718 26.4513C53.1787 26.4354 52.8761 26.4258 52.5989 26.3146C52.4428 26.251 52.4014 26.1207 52.5002 25.984C52.6849 25.7329 52.9653 25.5326 53.2106 25.3419C53.4718 25.1353 53.7458 24.9446 54.0516 24.8143C54.128 24.7793 54.2045 24.7539 54.2873 24.7348C54.5008 24.6871 54.7269 24.7475 54.934 24.8047C55.5011 24.9605 56.0649 25.1512 56.5874 25.4214C56.8199 25.5422 57.0429 25.6757 57.2691 25.806C57.3965 25.8759 57.5208 25.949 57.6355 26.0317C57.6992 26.0794 58.0178 26.2542 57.868 26.3559C57.8043 26.3972 57.7183 26.3845 57.645 26.3877C57.5495 26.3909 57.4507 26.4068 57.3551 26.4195C57.1321 26.4481 56.9091 26.4767 56.6861 26.5021C56.5778 26.5148 56.4727 26.5275 56.3644 26.5339C55.705 26.5879 55.0391 26.5689 54.3765 26.518H54.3797ZM56.409 24.6108C56.0331 24.6267 55.654 24.6045 55.2781 24.5695C55.0137 24.5441 54.7365 24.4201 54.6792 24.1404C54.6505 24.0069 54.676 23.8734 54.7365 23.7526C54.8384 23.5587 55.0073 23.4506 55.1984 23.4061C55.3195 23.3775 55.4501 23.3712 55.5807 23.3839C55.8133 23.4061 56.0363 23.4824 56.2561 23.5555C56.5428 23.6509 56.8295 23.7463 57.0907 23.8988C57.2182 23.9719 57.5399 24.0578 57.4985 24.2453C57.4571 24.4297 57.199 24.49 57.0366 24.5314C56.8327 24.5822 56.6192 24.6013 56.409 24.6108ZM55.8228 22.9357C55.654 22.9611 55.3386 23.0088 55.1952 22.8848C55.1124 22.8149 55.1029 22.6115 55.0869 22.5129C55.0551 22.3604 55.0328 22.2078 55.0328 22.0521C55.0296 21.9376 55.0423 21.8168 55.1029 21.7215C55.1411 21.6579 55.1984 21.6102 55.2653 21.5753C55.3036 21.5562 55.345 21.5403 55.3896 21.5276C55.5011 21.499 55.6221 21.5021 55.74 21.5117C56.1063 21.5403 56.4791 21.6388 56.8295 21.7533C57.0493 21.8232 57.2914 21.8899 57.4411 22.0775C57.4698 22.1156 57.4889 22.1665 57.4826 22.2142C57.4634 22.3508 57.2468 22.4526 57.1385 22.5066C56.9888 22.5829 56.8327 22.6401 56.6766 22.6973C56.3994 22.8022 56.1159 22.888 55.8228 22.9357ZM55.0774 20.5835C55.243 20.6026 55.6922 20.6757 55.6572 20.9268C55.6189 21.2034 55.3959 21.3146 55.1347 21.2892C54.934 21.2701 54.7429 21.1938 54.5645 21.1048C54.4434 21.0444 54.2395 20.9745 54.2332 20.8219C54.2332 20.7901 54.2395 20.7552 54.2555 20.717C54.367 20.4691 54.8703 20.5549 55.0774 20.5835ZM51.8121 20.9681C52.3313 20.3324 53.0577 19.8652 53.8541 19.6554C54.4625 19.4964 54.2873 20.0845 53.9974 20.3515C53.7266 20.5994 53.3603 20.7425 53.0131 20.841C52.7678 20.9141 52.5256 20.9872 52.2803 21.054C52.2166 21.0699 51.9204 21.162 51.8025 21.1334C51.742 21.1175 51.726 21.073 51.8121 20.9681ZM43.5866 29.1912C43.8033 28.6318 44.3767 27.8467 44.4818 27.71C45.463 26.4385 46.7691 25.4468 47.9574 24.3852C49.2826 23.1964 50.8117 22.0934 52.4364 21.3845C53.2233 21.0413 54.1886 20.8346 54.6505 21.7533C54.9754 22.4049 54.7938 23.2695 54.3765 23.8384C53.8063 24.6077 52.8601 25.1735 52.086 25.7202C51.1972 26.3464 50.2702 26.9217 49.2667 27.3476C47.83 27.9547 46.3136 28.387 44.9533 29.1594C44.6252 29.347 43.1502 30.3101 43.5866 29.1912ZM43.4656 30.7964C43.4656 30.7901 43.4656 30.7837 43.4688 30.7773C43.5197 30.5294 44.1091 30.5993 44.2907 30.5739C44.5551 30.539 44.8354 30.539 45.0903 30.4881C45.4407 30.4182 45.7879 30.326 46.1352 30.2465C46.8328 30.0844 47.5273 29.9255 48.225 29.7634C48.9099 29.6044 49.6139 29.792 50.2734 29.9859C50.7353 30.1226 51.1462 30.3292 51.5922 30.4945C52.3695 30.7805 53.1787 30.984 53.9879 31.1651C54.4052 31.2605 54.8257 31.3336 55.2462 31.4226C55.6158 31.5021 56.084 31.5593 56.4154 31.7468C56.6129 31.8549 56.6511 32.0583 56.4058 32.1187C56.221 32.1632 56.0235 32.141 55.8356 32.1505C55.3959 32.1664 54.9531 32.1823 54.5135 32.1823C53.5737 32.1823 52.6626 31.893 51.7324 31.8009C50.6047 31.6896 49.4546 31.785 48.3301 31.661C47.1992 31.537 46.0428 31.5116 44.9182 31.3749C44.6921 31.3463 43.4305 31.1715 43.4656 30.7964ZM56.4727 36.4671C56.4982 36.5751 56.4249 36.68 56.3198 36.6991C56.1541 36.7277 55.9725 36.8167 55.9184 36.8962C55.8929 36.9343 55.8451 36.9502 55.8037 36.9311C54.5709 36.3622 53.303 35.9521 51.9968 35.5802L51.8885 35.5485C51.7452 35.5103 51.6018 35.4722 51.4616 35.434C51.0093 35.3132 50.576 35.1511 50.13 35.0144C50.0281 34.9858 49.6522 34.9572 49.5853 34.8809C49.3368 34.5822 49.0596 34.3024 48.7888 34.0259C48.7315 33.9687 48.6678 33.9115 48.6073 33.8511C48.5372 33.7748 48.5818 33.6508 48.6869 33.6381C49.1425 33.5936 49.6585 33.6413 50.1077 33.6317C50.6461 33.619 51.1845 33.6159 51.7197 33.6794C52.6913 33.797 53.6215 34.1181 54.5263 34.4741C55.2112 34.7443 56.6352 34.8237 56.8932 35.6629C56.9123 35.7328 56.8996 35.8123 56.8422 35.8568C56.6925 35.9776 56.4727 35.771 56.3867 36.0062C56.3771 36.0348 56.4281 36.2764 56.4727 36.4671ZM48.792 37.3825C47.693 37.0583 46.7659 36.1365 45.9504 35.3228L45.8453 35.2179C45.635 35.0081 45.4375 34.776 45.2304 34.5313C44.8864 34.1244 44.4914 33.778 44.1282 33.3965C44.4595 32.9452 45.1827 33.2122 45.6382 33.2312C46.167 33.2567 46.629 33.4665 47.1418 33.5618C47.4763 33.6286 47.8013 33.5841 48.1007 33.7684C48.346 33.9178 48.5212 34.1594 48.7188 34.3596C49.1297 34.7824 49.5438 35.2211 49.8497 35.7296C50.009 35.9935 50.1714 36.305 50.1905 36.6196C50.2383 37.3793 49.3718 37.5542 48.792 37.3825ZM51.8216 32.5415C51.949 32.3889 52.1816 32.4016 52.3791 32.4302C53.0577 32.5351 56.2306 32.9706 56.237 33.9369C56.2401 34.4741 55.0742 34.0195 54.7206 33.9401C53.9401 33.7684 53.166 33.5523 52.3982 33.3202C52.2134 33.263 52.0223 33.1995 51.8853 33.0628C51.7515 32.9261 51.6974 32.6877 51.8216 32.5415ZM43.0642 32.2427C42.9845 32.0202 43.0482 31.804 43.2139 31.6833C43.2744 31.6388 43.3509 31.607 43.4369 31.5943C43.7364 31.5498 44.0613 31.6324 44.3576 31.6833C45.275 31.8358 46.1957 31.8899 47.1227 31.9725C47.7312 32.0265 48.3428 32.0234 48.9513 32.0997C49.5247 32.1728 50.2256 32.284 50.6493 32.7163C50.9201 32.9928 50.4518 33.0787 50.2351 33.0787C49.9644 33.0755 49.6968 32.9928 49.4292 32.9928C48.671 32.9928 47.9192 33.1073 47.161 33.1327C46.4314 33.1613 45.7401 32.9928 45.017 32.9483C44.5264 32.9166 44.0263 32.9038 43.5643 32.7195C43.3445 32.6305 43.1438 32.4684 43.0642 32.2427ZM49.4642 47.0582C49.1361 46.9184 48.5977 46.4924 47.9638 45.2591C47.6898 44.7188 47.4795 44.1498 47.3139 43.5681C46.5366 40.8122 45.5522 38.1168 44.3735 35.5071C44.16 35.0335 43.7555 34.2293 44.0486 33.7207C44.5264 34.1435 44.9405 34.687 45.4184 35.1321C45.8867 35.5675 46.3582 36.0157 46.6927 36.5688C47.1578 37.3348 47.3298 38.2344 47.5114 39.1117C47.7949 40.4626 48.1326 41.8008 48.5212 43.1231C48.8175 44.1275 49.0469 45.1606 49.4546 46.1301C49.4642 46.1555 49.6076 46.5496 49.7095 46.8325C49.7637 46.9819 49.6107 47.1218 49.4642 47.0582ZM50.9073 50.3004C50.799 50.453 50.6652 50.5928 50.4932 50.6659C50.3212 50.7391 50.1077 50.7327 49.9612 50.6183C49.7445 50.4562 49.735 50.1415 49.7414 49.8713C49.7573 49.3723 49.6776 48.2438 50.0918 47.8751C50.5219 47.4937 51.0698 48.5108 51.159 48.8319C51.2928 49.3277 51.1972 49.8777 50.9073 50.3004ZM51.2641 46.111C51.2577 46.3716 51.28 46.6227 51.1431 46.858C50.9105 47.2585 50.3976 47.3697 50.1013 46.9756C49.8146 46.6005 49.7095 46.0983 49.5693 45.6564C49.4132 45.1669 49.4164 44.6393 49.2253 44.1593C48.6487 42.7131 48.3428 41.4162 48.0179 40.0462C47.7694 39.0068 47.5178 37.9356 47.1355 36.7945C47.196 36.982 47.7726 37.2395 47.9446 37.3317C48.1167 37.4238 48.4671 37.4938 48.6296 37.6495C48.6582 37.6781 48.6805 37.7099 48.6965 37.7449C49.3814 39.4709 50.0313 41.2096 50.678 42.9483C50.9169 43.5935 51.2386 44.2038 51.3501 44.8904C51.417 45.31 51.2769 45.6946 51.2641 46.111ZM51.0825 43.2057C50.8563 42.5637 50.6238 41.9248 50.3849 41.2859C50.1491 40.6533 49.907 40.0208 49.6585 39.3914C49.4769 38.9273 49.152 38.4823 49.0533 37.9896C48.9704 37.5859 49.3877 37.6622 49.6808 37.7957C49.7637 37.8339 49.8369 37.8752 49.8847 37.9133C50.2065 38.1645 50.3944 38.5554 50.6238 38.8828C51.0284 39.4677 51.4234 40.0621 51.8089 40.6628C52.2071 41.2763 52.5925 41.8993 52.9748 42.5255C53.1564 42.8211 53.3253 43.1358 53.5196 43.4251C53.7362 43.7397 53.9783 43.9591 54.0165 44.3596C54.0484 44.706 53.9465 45.0557 53.8286 45.3767C53.6916 45.7486 53.4336 46.0379 53.0099 45.9489C52.5448 45.8503 52.188 45.4022 51.8375 45.1256C51.3342 44.7219 51.2896 43.7874 51.0825 43.2057ZM53.5132 49.6615C53.3412 49.8141 53.0768 49.83 52.8601 49.7473C52.6467 49.6615 52.4747 49.493 52.3345 49.3087C51.9936 48.8541 51.8152 48.2915 51.7515 47.7257C51.7101 47.3475 51.7165 46.9692 51.7452 46.591C51.7675 46.2985 51.742 45.7613 52.188 46.0411C52.3026 46.111 52.3855 46.2222 52.4651 46.3303C52.9653 47.036 53.3539 47.8179 53.612 48.6412C53.7203 48.9876 53.784 49.4199 53.5132 49.6615ZM55.6954 49.4358C55.5202 49.5566 55.2876 49.4072 55.1315 49.261C54.711 48.87 54.3064 48.4473 54.0325 47.9419C53.8318 47.5668 53.3221 45.7232 54.3064 46.0061C54.5103 46.0633 54.6664 46.2222 54.8034 46.3844C55.4246 47.1154 55.7942 48.0595 55.8324 49.0162C55.8388 49.172 55.8228 49.35 55.6954 49.4358ZM56.906 46.0411C56.5109 46.2381 56.0203 46.1682 55.6381 45.9489C55.259 45.7264 54.9722 45.3736 54.7365 45.0017C54.3574 44.4009 54.9085 44.2388 55.4087 44.2642C56.0171 44.2928 56.6161 44.5439 57.0493 44.973C57.1704 45.0907 57.285 45.2305 57.3105 45.399C57.3488 45.666 57.1481 45.9171 56.906 46.0411ZM57.5845 44.3945C56.7626 43.6412 55.6381 43.193 54.5836 43.7779C54.4817 43.8319 54.3829 43.8987 54.2682 43.9082C54.0197 43.9273 53.9592 43.6062 53.8573 43.441C53.596 43.0055 53.3316 42.5732 53.064 42.1377C52.8442 41.7817 50.2415 37.392 50.0026 37.5351C50.0822 37.4874 50.1555 37.4334 50.216 37.3666C50.2797 37.303 50.3307 37.2299 50.3721 37.1537C50.627 37.3062 50.8563 37.4397 51.0793 37.5669C51.7802 37.9706 52.4492 38.3997 53.0417 38.9527C53.3539 39.2388 53.6629 39.5313 53.9719 39.8237C54.6919 40.5071 55.4182 41.1778 56.1701 41.8262C56.7276 42.3094 57.2468 42.7067 57.524 43.4187C57.5972 43.6126 57.6514 43.816 57.6833 44.0195C57.6896 44.0703 57.6833 44.2197 57.6864 44.3469C57.6896 44.4009 57.6227 44.4295 57.5845 44.3945ZM58.1675 41.6641C57.9923 41.858 57.747 42.0042 57.4921 41.9438C57.2373 41.8803 57.0334 41.6609 56.9697 41.4066C56.8996 41.146 57.0015 40.8536 57.2182 40.6915C57.7215 40.31 58.6262 41.1428 58.1675 41.6641ZM58.4638 40.5929C58.0974 40.5262 57.7884 40.132 57.3806 40.0621C56.9251 39.9858 56.5906 40.2306 56.3803 40.6183C56.2242 40.9108 56.2943 41.2191 56.4154 41.5052C56.444 41.5783 56.3644 41.6482 56.2975 41.6069C55.9439 41.378 55.5648 40.9203 55.2908 40.6692C54.9117 40.3227 54.539 39.9731 54.1663 39.6203C53.8573 39.3278 53.5482 39.0322 53.2361 38.743C52.5129 38.0659 51.6623 37.5542 50.799 37.0774C50.7034 37.0265 50.6047 36.9725 50.5346 36.8866C50.3307 36.6419 50.439 35.9744 50.3148 35.5802C50.2829 35.4817 50.3785 35.3895 50.4773 35.4181C51.7037 35.7773 52.9398 36.092 54.144 36.5306C54.5263 36.6705 54.9053 36.8199 55.2844 36.9661C55.4851 37.0424 55.7177 37.0901 55.8929 37.214C56.2306 37.4556 56.4217 37.8625 56.769 38.1168C57.1258 38.3774 57.5208 38.584 57.8266 38.9082C57.833 38.9178 57.8425 38.9273 57.8521 38.9369C58.2025 39.3278 58.5784 40.0525 58.4638 40.5929ZM57.5017 36.3812C57.7215 36.3431 57.9445 36.4512 58.1133 36.5974C58.4223 36.8644 58.6963 37.4334 58.5625 37.8498C58.3969 38.3647 57.9286 38.1104 57.5335 37.8593C57.2627 37.6877 57.0398 37.4143 57.0079 37.0964C56.976 36.7786 57.1831 36.4321 57.5017 36.3812ZM60.2127 30.717C59.2697 31.0157 58.228 30.8791 57.301 30.5294C56.7403 30.3196 56.2115 30.0336 55.7018 29.722C55.5234 29.614 55.0296 29.4137 54.934 29.2325C54.8002 28.9783 55.157 29.0037 55.3386 28.9878C56.4536 28.8988 57.5845 29.0482 58.639 29.4137C59.2188 29.614 59.7763 29.881 60.2955 30.2084C60.3911 30.2688 60.493 30.3514 60.493 30.4627C60.493 30.5993 60.3433 30.6788 60.2127 30.717ZM61.6208 28.1677C61.5921 28.3107 61.4105 28.3552 61.264 28.368C60.2159 28.4633 59.1136 28.5523 58.1547 28.1264C57.9413 28.031 56.2338 27.0965 56.2879 26.9439C56.3389 26.8009 57.4157 26.7755 57.5749 26.7659C58.005 26.7437 58.4383 26.7596 58.862 26.8518C59.4067 26.9662 59.9196 27.1982 60.4293 27.4303C60.7351 27.5669 61.041 27.7068 61.3468 27.8435C61.487 27.9071 61.6526 28.0183 61.6208 28.1677ZM63.0002 26.2065C62.9842 26.3019 62.8727 26.3432 62.7803 26.3654C61.1652 26.7214 59.4481 26.4131 57.9955 25.6439C57.6259 25.45 57.1003 25.2021 56.8391 24.8747C57.7788 24.5822 59.0021 24.7189 59.9546 24.8969C60.9709 25.0908 61.9553 25.4595 62.8409 25.9935C62.9237 26.0412 63.0129 26.1143 63.0002 26.2065ZM62.8281 23.724C61.8119 23.7081 60.802 23.902 59.7858 23.9211C59.2952 23.9338 58.7982 23.8988 58.3204 23.7844C58.0815 23.7304 56.9952 23.4475 56.9601 23.1455C56.9251 22.8658 58.0369 22.5129 58.2599 22.4494C58.7632 22.3032 59.292 22.2428 59.8177 22.2491C60.8371 22.2587 61.8438 22.5066 62.8249 22.7831C63.3442 22.9325 63.8826 23.0978 64.2808 23.4634C63.8858 23.7717 63.3315 23.7304 62.8281 23.724ZM64.6535 20.9809C63.2518 21.1748 61.8438 21.3686 60.4293 21.3877C59.3111 21.4004 58.1834 21.3051 57.1003 21.0158C56.9506 20.9777 56.3739 20.8919 56.2943 20.7584C56.2083 20.6153 56.4759 20.396 56.5938 20.3006C56.9219 20.0368 57.3424 19.9065 57.747 19.8111C60.0693 19.2708 62.5542 19.4583 64.7682 20.342C64.9243 20.4055 65.1091 20.5104 65.1027 20.6789C65.0963 20.876 64.851 20.9554 64.6535 20.9809Z" fill="#FDFCF8" style="fill:#FDFCF8;fill:color(display-p3 0.1137 0.2275 0.2118);fill-opacity:1;"/>
</g>
</svg>
